<svg xmlns="http://www.w3.org/2000/svg" version="1.1" viewBox="0.0 0.0 41.80000022 41.80000022">
<path d="M -2.98678731039 31.71875 A 16.0 16.0 0 0 1 -15.71875 18.9867873104 A 3.0 3.0 0 0 1 -15.71875 13.0132126896 A 16.0 16.0 0 0 1 -2.98678731039 0.28125 A 3.0 3.0 0 0 1 2.98678731039 0.28125 A 16.0 16.0 0 0 1 15.71875 13.0132126896 A 3.0 3.0 0 0 1 15.71875 18.9867873104 A 16.0 16.0 0 0 1 2.98678731039 31.71875 A 3.0 3.0 0 0 1 -2.98678731039 31.71875 Z" fill="none" stroke="red" stroke-width="0.10" />
<circle cx="-5.65685424949" cy="10.3431457505" r="1.85" stroke="red" stroke-width="0.096" fill="none" />
<circle cx="5.65685424949" cy="21.6568542495" r="1.85" stroke="red" stroke-width="0.096" fill="none" />
<circle cx="5.65685424949" cy="10.3431457505" r="1.85" stroke="red" stroke-width="0.096" fill="none" />
<circle cx="-5.65685424949" cy="21.6568542495" r="1.85" stroke="red" stroke-width="0.096" fill="none" />
<circle cx="-2.54e-15" cy="16.0" r="4.0" stroke="red" stroke-width="0.096" fill="none" />
<circle cx="0.0" cy="0.0" r="1.85" stroke="red" stroke-width="0.096" fill="none" />
<circle cx="16.0" cy="16.0" r="1.85" stroke="red" stroke-width="0.096" fill="none" />
<circle cx="-5.08e-15" cy="32.0" r="1.85" stroke="red" stroke-width="0.096" fill="none" />
<circle cx="-16.0" cy="16.0" r="1.85" stroke="red" stroke-width="0.096" fill="none" />
</svg>
