<svg xmlns="http://www.w3.org/2000/svg" version="1.1" viewBox="0.0 0.0 828.234469741 486.238322296">
<path d="M 436.227126913 202.138386819 L 288.60990201 182.487126085 A 5.9586710625 5.9586710625 0 0 0 282.626291477 185.479290258 A 50.7660007057 50.7660007057 0 0 1 241.653680092 211.307709799 A 5.9586710625 5.9586710625 0 0 0 236.373630885 215.415960256 L 230.97468623 232.067835488 A 5.9586710625 5.9586710625 0 0 0 232.795914688 238.45605688 A 51.5763799702 51.5763799702 0 0 1 250.757431422 283.550900355 A 5.9586710625 5.9586710625 0 0 0 253.827071374 289.441872789 L 300.491127362 314.884710355 A 5.9586710625 5.9586710625 0 0 0 306.744479267 314.545937312 A 42.695989503 42.695989503 0 0 1 345.08664772 309.259935321 A 5.9586710625 5.9586710625 0 0 0 351.198392047 307.894007615 L 441.93750282 219.34601325 A 5.9586710625 5.9586710625 0 0 0 443.298624455 212.844198615 A 51.5763799702 51.5763799702 0 0 1 441.205394196 206.536466004 A 5.9586710625 5.9586710625 0 0 0 436.227126913 202.138386819 Z" fill="none" stroke="red" stroke-width="0.10" />
<path d="M 379.157796264 363.244341464 L 381.354948 363.244341463 A 107.256079125 107.256079125 0 0 0 444.981451759 342.333699558 L 528.423014039 280.847012513 A 5.9586710625 5.9586710625 0 0 0 529.685177009 272.515238014 L 509.952648009 245.736871401 A 5.9586710625 5.9586710625 0 0 0 503.700163024 243.493508487 A 51.5763799702 51.5763799702 0 0 1 470.574504631 240.795019303 A 5.9586710625 5.9586710625 0 0 0 464.041367615 241.996837252 L 373.302256842 330.544831617 A 5.9586710625 5.9586710625 0 0 0 371.787372838 336.621368762 A 42.695989503 42.695989503 0 0 1 373.273846687 356.344980117 A 5.9586710625 5.9586710625 0 0 0 379.157796264 363.244341464 Z" fill="none" stroke="red" stroke-width="0.10" />
<path d="M 35.7520263752 332.964236855 L 35.7520263752 357.285670401 A 5.9586710625 5.9586710625 0 0 0 41.7106974377 363.244341464 L 177.71480228 363.244341463 A 5.9586710625 5.9586710625 0 0 0 183.673473343 357.285670401 L 183.673473343 331.095428955 A 5.9586710625 5.9586710625 0 0 0 179.970781485 325.580329802 A 51.5763799702 51.5763799702 0 0 1 149.272275766 289.570132 A 5.9586710625 5.9586710625 0 0 0 144.412609335 285.041347634 L 130.514072411 282.813878279 A 5.9586710625 5.9586710625 0 0 0 124.151737608 286.220383911 A 72.7239381644 72.7239381644 0 0 1 42.945016633 327.134810043 A 5.9586710625 5.9586710625 0 0 0 35.7520263752 332.964236855 Z" fill="none" stroke="red" stroke-width="0.10" />
<path d="M 285.340796246 342.671544178 L 238.676740258 317.228706612 A 5.9586710625 5.9586710625 0 0 0 232.062120897 317.839490015 A 51.5763799702 51.5763799702 0 0 1 219.024872391 325.580329802 A 5.9586710625 5.9586710625 0 0 0 215.322180533 331.095428955 L 215.322180533 357.285670401 A 5.9586710625 5.9586710625 0 0 0 221.280851596 363.244341463 L 283.068729949 363.244341464 A 5.95867106251 5.95867106251 0 0 0 288.952679525 356.344980117 A 42.695989503 42.695989503 0 0 1 288.443388922 348.111497846 A 5.9586710625 5.9586710625 0 0 0 285.340796246 342.671544178 Z" fill="none" stroke="red" stroke-width="0.10" />
<path d="M 563.495427712 255.002739413 L 645.522964412 194.558024091 A 5.9586710625 5.9586710625 0 0 0 647.94682971 189.761055356 L 647.94682971 139.426772724 A 5.9586710625 5.9586710625 0 0 0 639.234861672 134.142350656 L 545.639925448 182.907315205 A 5.9586710625 5.9586710625 0 0 0 542.45976981 188.739369369 A 51.5763799702 51.5763799702 0 0 1 535.140269561 220.325821564 A 5.9586710625 5.9586710625 0 0 0 535.431124213 226.96220983 L 555.163653214 253.740576443 A 5.9586710625 5.9586710625 0 0 0 563.495427712 255.002739413 Z" fill="none" stroke="red" stroke-width="0.10" />
<path d="M 647.94682971 76.5994362327 A 5.9586710625 5.9586710625 0 0 0 644.179401287 71.0582976743 L 547.932111678 32.9973174723 A 5.9586710625 5.9586710625 0 0 0 540.42160914 35.8530817609 A 44.5758940127 44.5758940127 0 0 1 517.662770886 56.9572068097 A 5.9586710625 5.9586710625 0 0 0 513.989622248 62.1446826493 L 509.754089792 141.150928368 A 5.9586710625 5.9586710625 0 0 0 513.15623121 146.856336278 A 51.5763799702 51.5763799702 0 0 1 524.686512654 154.336410209 A 5.9586710625 5.9586710625 0 0 0 531.283182221 155.117560824 L 644.704737878 97.0191420079 A 5.9586710625 5.9586710625 0 0 0 647.94682971 91.7157508182 L 647.94682971 76.5994362327 Z" fill="none" stroke="red" stroke-width="0.10" />
<path d="M 478.150764666 139.456671058 L 482.386299391 60.4503830363 A 5.9586710625 5.9586710625 0 0 0 479.288812009 54.8999327464 A 44.5758940127 44.5758940127 0 0 1 456.198781562 12.1640056121 A 5.9586710625 5.9586710625 0 0 0 450.259576844 5.72407771374 L 287.567143968 5.72407771374 A 5.9586710625 5.9586710625 0 0 0 282.469597676 14.7683253242 A 51.5763799702 51.5763799702 0 0 1 257.548825146 89.3447455284 A 5.9586710625 5.9586710625 0 0 0 253.808716221 94.8345388654 L 253.718864962 108.04765386 A 5.9586710625 5.9586710625 0 0 0 257.436719531 113.609505966 A 50.7660007057 50.7660007057 0 0 1 287.500189454 147.955616924 A 5.9586710625 5.9586710625 0 0 0 292.520850225 152.377110661 L 440.260051476 171.089287196 A 5.9586710625 5.9586710625 0 0 0 446.196693582 168.108930479 A 51.5763799702 51.5763799702 0 0 1 474.158141179 144.765644908 A 5.9586710625 5.9586710625 0 0 0 478.150764666 139.456671058 Z" fill="none" stroke="red" stroke-width="0.10" />
<path d="M 251.867713276 144.177313895 A 103.587414497 103.587414497 0 0 1 224.825971724 144.177313895 A 15.8243535952 15.8243535952 0 0 0 220.694985168 175.555261834 A 135.236121688 135.236121688 0 0 0 255.998698515 175.555262008 A 15.8243535952 15.8243535952 0 0 0 251.867713276 144.177313895 Z" fill="none" stroke="red" stroke-width="0.10" />
<path d="M 0.0 398.996367839 L 0.0 0.0 A 30.0279486614 30.0279486614 0 0 1 30.0279486614 -30.0279486614 L 476.693685 -30.0279486614 A 47.6693685 47.6693685 0 0 1 494.22362612 -26.687688629 L 724.545048904 64.3928929474 A 28.6016211 28.6016211 0 0 1 742.628705333 90.990358028 L 742.628705333 152.960537078 A 28.6016211 28.6016211 0 0 1 730.994151902 175.985987003 L 466.190286346 371.115511965 A 143.0081055 143.0081055 0 0 1 381.354948 398.996367839 L 0.0 398.996367839 Z" fill="none" stroke="red" stroke-width="0.10" />
<circle cx="27.9378645781" cy="98.5396989517" r="6.38093909055" stroke="red" stroke-width="0.096" fill="none" />
<circle cx="135.193943703" cy="98.5396989517" r="6.38093909055" stroke="red" stroke-width="0.096" fill="none" />
<circle cx="81.5659041406" cy="152.167738514" r="6.38093909055" stroke="red" stroke-width="0.096" fill="none" />
<circle cx="81.5659041406" cy="44.9116593892" r="6.38093909055" stroke="red" stroke-width="0.096" fill="none" />
<circle cx="81.5659041406" cy="98.5396989517" r="41.472350595" stroke="red" stroke-width="0.096" fill="none" />
<circle cx="618.688347233" cy="229.231526678" r="6.94396312795" stroke="red" stroke-width="0.096" fill="none" />
<circle cx="500.52836925" cy="17.6414198386" r="6.94396312795" stroke="red" stroke-width="0.096" fill="none" />
<circle cx="23.83468425" cy="375.161683589" r="6.94396312795" stroke="red" stroke-width="0.096" fill="none" />
<circle cx="467.1598113" cy="341.793125639" r="6.94396312795" stroke="red" stroke-width="0.096" fill="none" />
<circle cx="618.688347233" cy="43.320989528" r="6.94396312795" stroke="red" stroke-width="0.096" fill="none" />
<circle cx="29.0047711225" cy="248.21645734" r="6.94396312795" stroke="red" stroke-width="0.096" fill="none" />
<circle cx="84.0145086094" cy="240.974288008" r="6.94396312795" stroke="red" stroke-width="0.096" fill="none" />
<circle cx="42.9955679144" cy="229.983295974" r="6.94396312795" stroke="red" stroke-width="0.096" fill="none" />
<circle cx="50.2377372462" cy="284.993033461" r="6.94396312795" stroke="red" stroke-width="0.096" fill="none" />
<circle cx="73.0235165758" cy="281.993228703" r="6.94396312795" stroke="red" stroke-width="0.096" fill="none" />
<circle cx="32.0045758808" cy="271.002236669" r="6.94396312795" stroke="red" stroke-width="0.096" fill="none" />
<circle cx="65.781347244" cy="226.983491216" r="6.94396312795" stroke="red" stroke-width="0.096" fill="none" />
<circle cx="87.0143133676" cy="263.760067338" r="6.94396312795" stroke="red" stroke-width="0.096" fill="none" />
<circle cx="58.0095422451" cy="255.988262339" r="15.0139743307" stroke="red" stroke-width="0.096" fill="none" />
<circle cx="113.770230564" cy="-4.95472712278" r="6.94396312795" stroke="red" stroke-width="0.096" fill="none" />
<circle cx="331.113263106" cy="349.604600917" r="6.94396312795" stroke="red" stroke-width="0.096" fill="none" />
<circle cx="698.712830415" cy="157.727473142" r="15.0139743307" stroke="red" stroke-width="0.096" fill="none" />
<circle cx="698.712830415" cy="86.2234216691" r="15.0139743307" stroke="red" stroke-width="0.096" fill="none" />
<circle cx="238.3468425" cy="41.4761040886" r="15.8243535952" stroke="red" stroke-width="0.096" fill="none" />
<circle cx="199.497826938" cy="277.84336858" r="15.8243535952" stroke="red" stroke-width="0.096" fill="none" />
<circle cx="491.101672789" cy="193.479500303" r="15.8243535952" stroke="red" stroke-width="0.096" fill="none" />
</svg>
