<svg xmlns="http://www.w3.org/2000/svg" version="1.1" viewBox="0.0 0.0 400.644480356 123.938645771">
<path d="M -360.335383937 0.0 L 0.0 0.0 L 0.0 101.344326732 A 9.38373395669 9.38373395669 0 0 1 -9.38373395669 110.728060689 L -350.95164998 110.728060689 A 9.38373395669 9.38373395669 0 0 1 -360.335383937 101.344326732 L -360.335383937 0.0 Z" fill="none" stroke="red" stroke-width="0.10" />
<circle cx="-300.279486614" cy="50.6721633661" r="15.0139743307" stroke="red" stroke-width="0.096" fill="none" />
<circle cx="-300.279486614" cy="80.7001120276" r="6.94396312795" stroke="red" stroke-width="0.096" fill="none" />
<circle cx="-300.279486614" cy="20.6442147047" r="6.94396312795" stroke="red" stroke-width="0.096" fill="none" />
<circle cx="-270.251537953" cy="50.6721633661" r="6.94396312795" stroke="red" stroke-width="0.096" fill="none" />
<circle cx="-330.307435276" cy="50.6721633661" r="6.94396312795" stroke="red" stroke-width="0.096" fill="none" />
<circle cx="-279.046520491" cy="71.9051294898" r="6.94396312795" stroke="red" stroke-width="0.096" fill="none" />
<circle cx="-321.512452738" cy="71.9051294898" r="6.94396312795" stroke="red" stroke-width="0.096" fill="none" />
<circle cx="-321.512452738" cy="29.4391972425" r="6.94396312795" stroke="red" stroke-width="0.096" fill="none" />
<circle cx="-279.046520491" cy="29.4391972425" r="6.94396312795" stroke="red" stroke-width="0.096" fill="none" />
<circle cx="-60.0558973228" cy="50.6721633661" r="15.0139743307" stroke="red" stroke-width="0.096" fill="none" />
<circle cx="-60.0558973228" cy="80.7001120276" r="6.94396312795" stroke="red" stroke-width="0.096" fill="none" />
<circle cx="-60.0558973228" cy="20.6442147047" r="6.94396312795" stroke="red" stroke-width="0.096" fill="none" />
<circle cx="-30.0279486614" cy="50.6721633661" r="6.94396312795" stroke="red" stroke-width="0.096" fill="none" />
<circle cx="-90.0838459843" cy="50.6721633661" r="6.94396312795" stroke="red" stroke-width="0.096" fill="none" />
<circle cx="-38.8229311992" cy="71.9051294898" r="6.94396312795" stroke="red" stroke-width="0.096" fill="none" />
<circle cx="-81.2888634464" cy="71.9051294898" r="6.94396312795" stroke="red" stroke-width="0.096" fill="none" />
<circle cx="-81.2888634464" cy="29.4391972425" r="6.94396312795" stroke="red" stroke-width="0.096" fill="none" />
<circle cx="-38.8229311992" cy="29.4391972425" r="6.94396312795" stroke="red" stroke-width="0.096" fill="none" />
<circle cx="-180.167691969" cy="50.6721633661" r="15.0139743307" stroke="red" stroke-width="0.096" fill="none" />
<circle cx="-180.167691969" cy="80.7001120276" r="6.94396312795" stroke="red" stroke-width="0.096" fill="none" />
<circle cx="-150.139743307" cy="50.6721633661" r="6.94396312795" stroke="red" stroke-width="0.096" fill="none" />
<circle cx="-180.167691969" cy="20.6442147047" r="6.94396312795" stroke="red" stroke-width="0.096" fill="none" />
<circle cx="-210.19564063" cy="50.6721633661" r="6.94396312795" stroke="red" stroke-width="0.096" fill="none" />
<circle cx="-240.223589291" cy="50.6721633661" r="15.0139743307" stroke="red" stroke-width="0.096" fill="none" />
<circle cx="-120.111794646" cy="50.6721633661" r="15.0139743307" stroke="red" stroke-width="0.096" fill="none" />
</svg>
